<svg xmlns="http://www.w3.org/2000/svg" viewBox="0 0 23.59 23.24"><title>logo</title><path d="M1,7.3l-.47.26-.47.17L0,7.3l.3-.46H.82Zm22.6,6.92-.46,2.05L22,18.37l-.77,1.22-.74.74-1,.89-1.12.84-1.35.54-2,.42L13,23.24,11,23l-1.81-.28-1.43-.6L5.05,20.93,3.51,19.81l-.79-.64-1-.95L1.07,17,.64,15.81.41,14.53l.24-.94-.28-1.2L0,11.49l.42-1.07V9.88l.41-.35V8.68l.39-.54.65-.56.45-1.16.83-1,.91-.74.65-.85.79-.08.91-.54L7.09,3l.85-.3.85-.5.94-.25.91-.67.86-.76L11.8.26,12.53,0l1.14.18,1.05.53.9.77L16,2.65l-.18.81-1.15.84-1.5.49-2,.07L9.79,6.19,8.93,7.54l-1,1-.86,1.7-.25,1.68-.48,1.53L7.18,15l.25,1.51,1.08.95,1,1.8.79.14.41.33,1,.18,1.32.14,1.55-.29,1.53-.36.94-.56.07-1.57.68-.3,0-1.27.42-.83.18-.89.39-.76-.23-.77-.14-1.16-.58-.81L17,10l-.58-.9-1-1,.18-.85.36-.74.68-.32h1l1.25.6,1.2.49.58.86.79.55.23.9.46.9.38.72.64.7.17,1.18ZM10.71.69,10.18,1,10,.68l.18-.44.53.09Z" style="fill:#3f85c6"/></svg>