<svg xmlns="http://www.w3.org/2000/svg" width="192" height="192" viewBox="0 0 192 192"><title>chart-gs</title><rect width="192" height="192" fill="none"/><rect x="28" y="28" width="136" height="136" fill="none"/><polygon points="164 136 152 128 40 128 28 136 28 152 164 152 164 136" fill="#c3d0e0"/><path d="M96,156H43a3,3,0,0,1-3-3V72H96Z" fill="#516782"/><path d="M149,156H96V72h56v81A3,3,0,0,1,149,156Z" fill="#e3eef9"/><rect x="44" y="76" width="20" height="4" fill="#e6edf7"/><rect x="52" y="84" width="28" height="4" fill="#e3eef9"/><rect x="52" y="92" width="28" height="4" fill="#e3eef9"/><rect x="52" y="128" width="28" height="4" fill="#e3eef9"/><rect x="44" y="100" width="20" height="4" fill="#e6edf7"/><rect x="44" y="112" width="28" height="4" fill="#a1b0c4"/><rect x="44" y="120" width="28" height="4" fill="#a1b0c4"/><path d="M43,60H149a3,3,0,0,1,3,3v9a0,0,0,0,1,0,0H40a0,0,0,0,1,0,0V63A3,3,0,0,1,43,60Z" fill="#a1b0c4"/><path d="M51,52h90a3,3,0,0,1,3,3v5a0,0,0,0,1,0,0H48a0,0,0,0,1,0,0V55A3,3,0,0,1,51,52Z" fill="#a1b0c4" opacity="0.66"/><path d="M59,44h74a3,3,0,0,1,3,3v5a0,0,0,0,1,0,0H56a0,0,0,0,1,0,0V47A3,3,0,0,1,59,44Z" fill="#a1b0c4" opacity="0.33"/><circle cx="46" cy="66" r="2" fill="#fff"/><circle cx="54" cy="66" r="2" fill="#fff"/><circle cx="62" cy="66" r="2" fill="#fff"/><rect x="100" y="76" width="48" height="44" fill="#fff"/><polyline points="122.34 81.86 114 90 122 102 128 112 136 104 141.92 114" fill="none" stroke="#a1b0c4" stroke-miterlimit="10" stroke-width="2"/><line x1="135.92" y1="88" x2="122" y2="102" fill="none" stroke="#a1b0c4" stroke-miterlimit="10" stroke-width="2"/><circle cx="122" cy="82" r="2" fill="#a1b0c4" stroke="#a1b0c4" stroke-miterlimit="10" stroke-width="2"/><circle cx="122" cy="102" r="2" fill="#a1b0c4" stroke="#a1b0c4" stroke-miterlimit="10" stroke-width="2"/><circle cx="141.92" cy="114" r="2" fill="#a1b0c4" stroke="#a1b0c4" stroke-miterlimit="10" stroke-width="2"/><polyline points="106 102 106 86 114 90" fill="none" stroke="#a1b0c4" stroke-miterlimit="10" stroke-width="2"/><circle cx="106" cy="102" r="2" fill="#a1b0c4" stroke="#a1b0c4" stroke-miterlimit="10" stroke-width="2"/><circle cx="106" cy="86" r="2" fill="#516782" stroke="#516782" stroke-miterlimit="10" stroke-width="2"/><circle cx="135.92" cy="88" r="2" fill="#516782" stroke="#516782" stroke-miterlimit="10" stroke-width="2"/><circle cx="114" cy="90" r="2" fill="#a1b0c4" stroke="#a1b0c4" stroke-miterlimit="10" stroke-width="2"/><circle cx="136" cy="104" r="2" fill="#a1b0c4" stroke="#a1b0c4" stroke-miterlimit="10" stroke-width="2"/><circle cx="128" cy="112" r="2" fill="#a1b0c4" stroke="#a1b0c4" stroke-miterlimit="10" stroke-width="2"/><rect x="100" y="124" width="36" height="4" fill="#829bac"/><rect x="100" y="132" width="16" height="4" fill="#829bac"/><rect x="120" y="132" width="24" height="4" fill="#829bac"/><path d="M112,136a16,16,0,0,1-32,0H28v28H164V136Z" fill="#a1b0c4"/></svg>